<?xml version="1.0" encoding="utf-8"?>
<!-- Generator: Adobe Illustrator 16.0.4, SVG Export Plug-In . SVG Version: 6.00 Build 0)  -->
<!DOCTYPE svg PUBLIC "-//W3C//DTD SVG 1.1//EN" "http://www.w3.org/Graphics/SVG/1.1/DTD/svg11.dtd">
<svg version="1.1" id="Ebene_2" xmlns="http://www.w3.org/2000/svg" xmlns:xlink="http://www.w3.org/1999/xlink" x="0px" y="0px"
	 width="16px" height="16px" viewBox="0 0 16 16" enable-background="new 0 0 16 16" xml:space="preserve">
<g>
	<linearGradient id="SVGID_1_" gradientUnits="userSpaceOnUse" x1="5.6567" y1="5.5806" x2="10.439" y2="10.3628">
		<stop  offset="0" style="stop-color:#F49B00"/>
		<stop  offset="0.5064" style="stop-color:#EB6514"/>
		<stop  offset="1" style="stop-color:#DF2C14"/>
	</linearGradient>
	<path fill="url(#SVGID_1_)" d="M8.083,4.413C6.118,4.396,4.508,5.976,4.491,7.94c-0.019,1.965,1.56,3.575,3.525,3.597
		c1.968,0.017,3.578-1.564,3.595-3.529C11.628,6.041,10.051,4.432,8.083,4.413z M8.034,9.777C7.037,9.767,6.237,8.955,6.248,7.958
		c0.009-0.997,0.823-1.796,1.82-1.786c0.997,0.009,1.793,0.823,1.788,1.82C9.845,8.986,9.027,9.788,8.034,9.777z"/>
	<linearGradient id="SVGID_2_" gradientUnits="userSpaceOnUse" x1="1.2939" y1="1.2939" x2="12.643" y2="12.643">
		<stop  offset="0" style="stop-color:#F49B00"/>
		<stop  offset="0.5064" style="stop-color:#EB6514"/>
		<stop  offset="1" style="stop-color:#DF2C14"/>
	</linearGradient>
	<path fill="url(#SVGID_2_)" d="M8,1C7.988,1,7.978,1,7.966,1v0H1v7c0,3.867,3.133,7,7,7c3.868,0,7-3.133,7-7C15,4.135,11.867,1,8,1
		z M8.005,12.811c-2.685-0.026-4.839-2.225-4.816-4.907c0.026-2.685,2.222-4.84,4.907-4.814c2.683,0.024,4.839,2.222,4.814,4.904
		C12.884,10.679,10.69,12.836,8.005,12.811z"/>
</g>
</svg>
