<?xml version="1.0" encoding="utf-8"?>
<!-- Generator: Adobe Illustrator 16.0.4, SVG Export Plug-In . SVG Version: 6.00 Build 0)  -->
<!DOCTYPE svg PUBLIC "-//W3C//DTD SVG 1.1//EN" "http://www.w3.org/Graphics/SVG/1.1/DTD/svg11.dtd">
<svg version="1.1" id="Ebene_2" xmlns="http://www.w3.org/2000/svg" xmlns:xlink="http://www.w3.org/1999/xlink" x="0px" y="0px"
	 width="16px" height="16px" viewBox="0 0 16 16" enable-background="new 0 0 16 16" xml:space="preserve">
<path fill="#3A6BA7" d="M12.341,4.08c-1.062-1.162-2.586-1.895-4.285-1.895c-1.513,0-2.886,0.583-3.92,1.529V3.52
	c0-0.124-0.101-0.224-0.224-0.224H1.896c-0.124,0-0.224,0.101-0.224,0.224v0.56H1v8.288h3.228c1.023,0.897,2.36,1.446,3.829,1.446
	c1.468,0,2.804-0.549,3.829-1.446H15V4.08H12.341z M1.662,11.695V4.752h1.571C2.608,5.68,2.243,6.797,2.243,8
	c0,1.404,0.497,2.691,1.326,3.695H1.662z M8.056,12.968c-2.744,0-4.968-2.225-4.967-4.968c0-2.744,2.224-4.968,4.967-4.968
	c2.743,0,4.967,2.224,4.967,4.968C13.023,10.743,10.8,12.968,8.056,12.968z M14.338,11.695h-1.794
	c0.828-1.004,1.325-2.291,1.325-3.695c0-1.203-0.365-2.32-0.99-3.248h1.459V11.695z"/>
<path id="path3276" fill="#336AA0" d="M8.112,3.856l0.112,0.896c1.816,0.179,3.038,1.202,3.135,3.08l0.951,0.056
	C12.286,5.562,10.543,3.777,8.112,3.856z"/>
</svg>
