<?xml version="1.0" encoding="utf-8"?>
<!-- Generator: Adobe Illustrator 16.0.4, SVG Export Plug-In . SVG Version: 6.00 Build 0)  -->
<!DOCTYPE svg PUBLIC "-//W3C//DTD SVG 1.1//EN" "http://www.w3.org/Graphics/SVG/1.1/DTD/svg11.dtd">
<svg version="1.1" xmlns="http://www.w3.org/2000/svg" xmlns:xlink="http://www.w3.org/1999/xlink" x="0px" y="0px" width="16px"
	 height="16px" viewBox="0 0 16 16" enable-background="new 0 0 16 16" xml:space="preserve">
<g id="Layer_1">
</g>
<g id="Ebene_2">
	<path d="M13.003,7.166c1.917-0.567,3.039-2.598,2.232-2.638c-2.07-0.105-3.843-1.109-5.036-1.859
		c-0.125-0.083-0.255-0.162-0.387-0.236V7.1c0,1.543-0.934,2.773-1.992,3.284c-1.537,0.741-3.25,0.276-3.825-1.04
		C3.42,8.027,4.199,6.358,5.736,5.616c0.85-0.41,1.753-0.45,2.488-0.181V1.814C7.76,1.703,7.276,1.642,6.778,1.642
		C3.311,1.642,0.5,4.488,0.5,8c0,3.512,2.811,6.358,6.278,6.358c3.467,0,6.278-2.847,6.278-6.358
		C13.056,7.717,13.038,7.438,13.003,7.166z"/>
</g>
</svg>
