<?xml version="1.0" encoding="utf-8"?>
<!-- Generator: Adobe Illustrator 16.0.4, SVG Export Plug-In . SVG Version: 6.00 Build 0)  -->
<!DOCTYPE svg PUBLIC "-//W3C//DTD SVG 1.1//EN" "http://www.w3.org/Graphics/SVG/1.1/DTD/svg11.dtd">
<svg version="1.1" id="Ebene_2" xmlns="http://www.w3.org/2000/svg" xmlns:xlink="http://www.w3.org/1999/xlink" x="0px" y="0px"
	 width="16px" height="16px" viewBox="0 0 16 16" enable-background="new 0 0 16 16" xml:space="preserve">
<path id="Scribd" d="M10.092,13.474c-0.104,0.127-0.215,0.253-0.34,0.372C8.954,14.615,7.987,15,6.851,15
	c-1.106,0-2.084-0.3-2.932-0.902c-0.847-0.603-1.499-1.505-1.956-2.708l0.034-0.01c-0.038-0.131-0.064-0.266-0.064-0.409
	c0-0.834,0.68-1.509,1.519-1.509c0.839,0,1.519,0.675,1.519,1.509c0,0.428-0.181,0.811-0.467,1.086
	c0.6,0.691,1.36,1.045,2.286,1.045c0.658,0,1.205-0.195,1.64-0.587c0.436-0.39,0.654-0.884,0.654-1.48
	c0-0.356-0.114-0.715-0.343-1.075s-0.512-0.656-0.852-0.89c-0.339-0.233-0.88-0.501-1.62-0.802C5.528,7.965,4.959,7.689,4.56,7.438
	C4.16,7.187,3.814,6.888,3.522,6.542c-0.29-0.347-0.504-0.693-0.64-1.036C2.748,5.161,2.679,4.794,2.679,4.402
	c0-0.942,0.381-1.745,1.142-2.408C4.583,1.332,5.507,1,6.592,1c0.72,0,1.45,0.155,2.19,0.464c0.615,0.257,1.14,0.632,1.582,1.112
	c0.317,0.277,0.521,0.678,0.521,1.13c0,0.833-0.68,1.509-1.519,1.509S7.849,4.54,7.849,3.707c0-0.221,0.051-0.43,0.137-0.619
	c-0.305-0.151-0.711-0.23-1.232-0.23c-0.649,0-1.176,0.146-1.579,0.437C4.77,3.586,4.568,3.961,4.568,4.421
	c0,0.398,0.177,0.749,0.529,1.053c0.353,0.307,0.953,0.64,1.803,1.002c0.85,0.362,1.511,0.7,1.984,1.014
	c0.473,0.312,0.86,0.658,1.165,1.036c0.304,0.378,0.53,0.776,0.679,1.195c0.01,0.026,0.013,0.056,0.021,0.082
	c-0.643,0.532-1.062,1.324-1.062,2.222C9.688,12.556,9.843,13.046,10.092,13.474z M12.315,10.284c-0.968,0-1.751,0.78-1.751,1.741
	s0.783,1.74,1.751,1.74s1.751-0.779,1.751-1.74C14.066,11.063,13.283,10.284,12.315,10.284z"/>
</svg>
