<?xml version="1.0" encoding="utf-8"?>
<!-- Generator: Adobe Illustrator 16.0.4, SVG Export Plug-In . SVG Version: 6.00 Build 0)  -->
<!DOCTYPE svg PUBLIC "-//W3C//DTD SVG 1.1//EN" "http://www.w3.org/Graphics/SVG/1.1/DTD/svg11.dtd">
<svg version="1.1" id="Ebene_1" xmlns="http://www.w3.org/2000/svg" xmlns:xlink="http://www.w3.org/1999/xlink" x="0px" y="0px"
	 width="16px" height="16px" viewBox="0 0 16 16" enable-background="new 0 0 16 16" xml:space="preserve">
<g id="Layer_1">
</g>
<path fill="#B1B3B5" d="M2.37,9.085V3.107c0-0.99,0.252-1.3,1.158-1.3h9.031c0.858,0,1.16,0.369,1.16,1.3v5.597l0.698-0.48V2.469
	c0-0.782-0.589-1.414-1.312-1.414H2.903c-0.723,0-1.312,0.632-1.312,1.414V8.6L2.37,9.085"/>
<path fill="#008ED3" d="M14.584,7.984c-2.322,1.661-4.382,1.422-5.432,1.389c-0.727-0.037-0.96,0.302-0.96,0.811
	c0,0,0.007,3.952,0.007,3.873c-0.084,2.793,5.425,1.928,3.82-3.521c1.514-0.622,2.5-1.411,3.02-2.047
	C15.305,8.093,15.02,7.681,14.584,7.984z"/>
<path fill="#F6921E" d="M10.428,9.8c-0.76,1.046-1.664,0.853-2.729-0.134C7.668,9.637,7.644,9.621,7.616,9.598
	C7.599,9.58,7.577,9.566,7.558,9.55C7.473,9.486,7.402,9.447,7.344,9.434c-0.132-0.045-0.29-0.071-0.495-0.061
	c-1.05,0.033-3.11,0.271-5.433-1.389c-0.435-0.303-0.72,0.109-0.453,0.504c0.519,0.636,1.505,1.425,3.017,2.047
	c-1.6,5.449,3.905,6.314,3.822,3.521c0,0.051,0.003-1.586,0.005-2.748c0.64,0.15,0.91,0.29,1.792,0.088
	c0.842-0.196,1.254-0.797,1.43-1.225C11.323,9.461,10.816,9.26,10.428,9.8z"/>
<path fill="#F6921E" d="M6.059,5.423c-0.968,0-1.754,0.734-1.754,1.64c0,0.907,0.786,1.641,1.754,1.641
	c0.967,0,1.753-0.735,1.753-1.641C7.812,6.158,7.027,5.424,6.059,5.423z"/>
<path fill="#008ED3" d="M10.139,5.423C9.17,5.424,8.385,6.158,8.385,7.063c0,0.906,0.785,1.641,1.754,1.641
	c0.967,0,1.754-0.734,1.754-1.641C11.893,6.157,11.105,5.423,10.139,5.423z"/>
</svg>
