<?xml version="1.0" encoding="utf-8"?>
<!-- Generator: Adobe Illustrator 16.0.4, SVG Export Plug-In . SVG Version: 6.00 Build 0)  -->
<!DOCTYPE svg PUBLIC "-//W3C//DTD SVG 1.1//EN" "http://www.w3.org/Graphics/SVG/1.1/DTD/svg11.dtd">
<svg version="1.1" xmlns="http://www.w3.org/2000/svg" xmlns:xlink="http://www.w3.org/1999/xlink" x="0px" y="0px" width="16px"
	 height="16px" viewBox="0 0 16 16" enable-background="new 0 0 16 16" xml:space="preserve">
<g id="Layer_1">
</g>
<g id="Ebene_2">
	
		<linearGradient id="path2465_1_" gradientUnits="userSpaceOnUse" x1="36.5449" y1="-12.4692" x2="36.5449" y2="-13.2725" gradientTransform="matrix(10.6432 0 0 -10.6432 -380.9493 -129.9815)">
		<stop  offset="0" style="stop-color:#F79810"/>
		<stop  offset="1" style="stop-color:#F8310E"/>
	</linearGradient>
	<path id="path2465" fill="url(#path2465_1_)" d="M0.67,6.62c-0.031,0-0.057,0.024-0.06,0.06L0.5,7.513L0.61,8.33
		c0.003,0.035,0.029,0.059,0.06,0.059c0.03,0,0.055-0.022,0.06-0.058l0,0l0,0l0,0l0.13-0.818l-0.13-0.834
		C0.725,6.645,0.7,6.62,0.67,6.62z M1.287,6.165C1.282,6.129,1.256,6.104,1.224,6.104c-0.031,0-0.058,0.026-0.062,0.062
		c0,0.001-0.147,1.348-0.147,1.348L1.162,8.83c0.004,0.035,0.031,0.061,0.062,0.061S1.282,8.865,1.287,8.83l0.167-1.317L1.287,6.165
		z M3.61,4.923c-0.061,0-0.11,0.049-0.113,0.111L3.379,7.514l0.118,1.602C3.5,9.179,3.55,9.228,3.61,9.228
		c0.06,0,0.11-0.05,0.113-0.113v0.001l0.133-1.602L3.724,5.034C3.721,4.972,3.67,4.923,3.61,4.923z M2.408,5.784
		c-0.047,0-0.085,0.036-0.089,0.087L2.187,7.513l0.132,1.589c0.004,0.05,0.042,0.086,0.089,0.086c0.045,0,0.083-0.036,0.088-0.086
		l0.15-1.589l-0.15-1.644C2.492,5.82,2.454,5.784,2.408,5.784z M4.832,9.228c0.076,0,0.136-0.061,0.14-0.138l0.115-1.575
		L4.972,4.214C4.969,4.137,4.908,4.076,4.833,4.076c-0.076,0-0.137,0.061-0.139,0.138L4.591,7.515L4.694,9.09
		C4.696,9.167,4.757,9.228,4.832,9.228z M7.334,9.234c0.103,0,0.188-0.085,0.19-0.188v0.001V9.046l0.08-1.53l-0.08-3.812
		c-0.002-0.104-0.087-0.189-0.19-0.189c-0.104,0-0.189,0.084-0.19,0.19L7.072,7.514c0,0.003,0.072,1.532,0.072,1.532
		C7.146,9.149,7.231,9.234,7.334,9.234z M6.074,9.229c0.09,0,0.163-0.072,0.165-0.164v0.001l0.098-1.551L6.238,4.191
		C6.236,4.1,6.164,4.027,6.074,4.027c-0.09,0-0.163,0.072-0.165,0.164L5.822,7.515l0.087,1.551C5.911,9.156,5.983,9.229,6.074,9.229
		z M3.006,9.214c0.054,0,0.097-0.043,0.101-0.1l0.142-1.602L3.107,5.989c-0.004-0.057-0.047-0.1-0.101-0.1
		c-0.054,0-0.097,0.043-0.1,0.1L2.781,7.513l0.125,1.602C2.91,9.171,2.953,9.214,3.006,9.214z M1.813,9.126
		c0.04,0,0.071-0.03,0.076-0.073l0.159-1.54l-0.159-1.6C1.884,5.872,1.853,5.84,1.813,5.84S1.743,5.872,1.738,5.913
		c0,0.002-0.14,1.6-0.14,1.6l0.14,1.54C1.743,9.096,1.774,9.126,1.813,9.126z M6.702,4.136c-0.098,0-0.176,0.077-0.178,0.177
		l-0.08,3.202l0.08,1.541c0.001,0.099,0.08,0.176,0.178,0.176c0.097,0,0.175-0.077,0.177-0.177v0.001l0.089-1.541L6.879,4.312
		C6.877,4.213,6.799,4.136,6.702,4.136z M4.219,9.23c0.067,0,0.123-0.056,0.126-0.125l0.124-1.592L4.345,4.469
		c-0.003-0.07-0.059-0.126-0.126-0.126c-0.068,0-0.124,0.056-0.126,0.126L3.983,7.514l0.11,1.593C4.096,9.175,4.151,9.23,4.219,9.23
		z M5.603,9.08L5.603,9.08l0.106-1.565L5.603,4.104C5.6,4.019,5.533,3.952,5.451,3.952s-0.15,0.066-0.152,0.151L5.204,7.515
		L5.299,9.08c0.002,0.084,0.069,0.15,0.152,0.15S5.6,9.164,5.603,9.08L5.603,9.08z M13.655,5.549c-0.253,0-0.494,0.051-0.714,0.143
		C12.794,4.028,11.4,2.725,9.699,2.725c-0.416,0-0.821,0.081-1.181,0.221C8.38,2.998,8.343,3.054,8.342,3.162v5.855
		C8.343,9.13,8.431,9.225,8.541,9.236c0.004,0,5.081,0.003,5.114,0.003c1.019,0,1.845-0.827,1.845-1.847
		C15.5,6.374,14.675,5.549,13.655,5.549z M7.964,3.156c-0.111,0-0.202,0.091-0.204,0.203L7.678,7.516l0.083,1.509
		c0.002,0.11,0.093,0.201,0.204,0.201c0.11,0,0.202-0.091,0.203-0.203v0.002l0.09-1.509l-0.09-4.157
		C8.166,3.247,8.075,3.156,7.964,3.156z M1.99,10.412c-0.218-0.052-0.277-0.079-0.277-0.165c0-0.062,0.049-0.125,0.196-0.125
		c0.126,0,0.225,0.052,0.313,0.143l0.198-0.192C2.291,9.936,2.133,9.855,1.919,9.855c-0.271,0-0.492,0.153-0.492,0.402
		c0,0.272,0.177,0.353,0.43,0.411c0.26,0.059,0.307,0.099,0.307,0.188c0,0.104-0.077,0.149-0.239,0.149
		c-0.132,0-0.256-0.045-0.352-0.157l-0.199,0.178c0.104,0.152,0.305,0.249,0.535,0.249c0.376,0,0.541-0.177,0.541-0.438
		C2.45,10.537,2.208,10.463,1.99,10.412z M3.257,9.855c-0.375,0-0.598,0.291-0.598,0.709c0,0.42,0.222,0.711,0.598,0.711
		c0.376,0,0.598-0.291,0.598-0.711C3.855,10.146,3.633,9.855,3.257,9.855z M3.257,11.002c-0.222,0-0.315-0.19-0.315-0.437
		c0-0.245,0.093-0.438,0.315-0.438c0.223,0,0.314,0.192,0.314,0.438C3.571,10.812,3.479,11.002,3.257,11.002z M4.966,10.649
		c0,0.221-0.108,0.356-0.283,0.356c-0.175,0-0.281-0.14-0.281-0.359V9.876H4.126v0.773c0,0.401,0.225,0.626,0.557,0.626
		c0.35,0,0.558-0.23,0.558-0.629V9.876H4.966V10.649L4.966,10.649z M6.43,10.459c0,0.076,0.003,0.25,0.003,0.302
		c-0.018-0.036-0.063-0.105-0.096-0.156L5.849,9.876H5.585v1.378h0.271v-0.606c0-0.076-0.004-0.249-0.004-0.301
		c0.018,0.035,0.063,0.104,0.096,0.155l0.506,0.752h0.246V9.876H6.43V10.459L6.43,10.459z M7.486,9.876H7.055v1.378h0.411
		c0.354,0,0.704-0.205,0.704-0.689C8.17,10.062,7.878,9.876,7.486,9.876z M7.466,10.986H7.331v-0.842h0.145
		c0.291,0,0.412,0.14,0.412,0.42C7.887,10.816,7.755,10.986,7.466,10.986z M9.021,10.128c0.124,0,0.203,0.056,0.252,0.15
		l0.255-0.118C9.443,9.98,9.285,9.855,9.025,9.855c-0.36,0-0.611,0.291-0.611,0.709c0,0.436,0.242,0.711,0.602,0.711
		c0.249,0,0.415-0.116,0.509-0.311l-0.231-0.139c-0.073,0.122-0.146,0.176-0.27,0.176c-0.206,0-0.326-0.189-0.326-0.438
		C8.697,10.31,8.815,10.128,9.021,10.128z M10.042,9.876H9.768v1.378h0.827v-0.271h-0.553V9.876z M11.32,9.855
		c-0.376,0-0.598,0.291-0.598,0.709c0,0.42,0.222,0.711,0.598,0.711c0.375,0,0.598-0.291,0.598-0.711
		C11.918,10.146,11.695,9.855,11.32,9.855z M11.32,11.002c-0.223,0-0.314-0.19-0.314-0.437c0-0.245,0.092-0.438,0.314-0.438
		s0.314,0.192,0.314,0.438C11.635,10.812,11.543,11.002,11.32,11.002z M13.029,10.649c0,0.221-0.107,0.356-0.283,0.356
		c-0.175,0-0.281-0.14-0.281-0.359V9.876h-0.275v0.773c0,0.401,0.225,0.626,0.557,0.626c0.351,0,0.559-0.23,0.559-0.629V9.876
		h-0.275V10.649z M14.08,9.876h-0.431v1.378h0.411c0.354,0,0.704-0.205,0.704-0.689C14.765,10.062,14.474,9.876,14.08,9.876z
		 M14.061,10.986h-0.137v-0.842h0.146c0.291,0,0.411,0.14,0.411,0.42C14.48,10.816,14.349,10.986,14.061,10.986z"/>
</g>
</svg>
