<?xml version="1.0" encoding="utf-8"?>
<!-- Generator: Adobe Illustrator 16.0.4, SVG Export Plug-In . SVG Version: 6.00 Build 0)  -->
<!DOCTYPE svg PUBLIC "-//W3C//DTD SVG 1.1//EN" "http://www.w3.org/Graphics/SVG/1.1/DTD/svg11.dtd">
<svg version="1.1" id="Ebene_2" xmlns="http://www.w3.org/2000/svg" xmlns:xlink="http://www.w3.org/1999/xlink" x="0px" y="0px"
	 width="16px" height="16px" viewBox="0 0 16 16" enable-background="new 0 0 16 16" xml:space="preserve">
<g>
	<g>
		<path fill="#FF2B06" d="M2.417,6.767H1V5.471h4.393v1.296H3.975v3.762H2.417V6.767z"/>
		<path fill="#FF2B06" d="M5.634,5.471h4.264v1.296H7.193v0.63h2.706v1.205H7.193v0.63h2.707v1.297H5.634V5.471z"/>
		<path fill="#FF2B06" d="M10.16,5.471h2.558C14.404,5.471,15,6.718,15,7.993c0,1.552-0.822,2.537-2.586,2.537H10.16V5.471z
			 M11.719,9.232h0.61c0.971,0,1.112-0.786,1.112-1.262c0-0.318-0.1-1.204-1.227-1.204h-0.496V9.232z"/>
	</g>
</g>
</svg>
